<?xml version="1.0" standalone="no"?>
<!DOCTYPE svg PUBLIC "-//W3C//DTD SVG 20010904//EN"
 "http://www.w3.org/TR/2001/REC-SVG-20010904/DTD/svg10.dtd">
<svg version="1.0" xmlns="http://www.w3.org/2000/svg"
 width="2836.000000pt" height="2836.000000pt" viewBox="0 0 2836.000000 2836.000000"
 preserveAspectRatio="xMidYMid meet">

<g transform="translate(0.000000,2836.000000) scale(0.100000,-0.100000)"
fill="#000000" stroke="none">
<path d="M13244 25585 c-277 -50 -500 -189 -638 -399 -81 -122 -95 -162 -109
-305 -16 -167 -15 -1075 1 -1371 47 -844 130 -1760 237 -2609 14 -107 24 -195
22 -196 -1 -1 -202 83 -447 186 -279 118 -458 189 -479 189 -100 0 -169 -54
-215 -167 l-29 -73 -101 6 c-89 6 -181 -3 -298 -28 -6 -2 -38 60 -70 137 -759
1794 -1187 2736 -1304 2873 -39 45 -111 78 -262 118 -120 32 -339 44 -459 24
-366 -58 -693 -314 -804 -630 -61 -171 -60 -326 2 -690 111 -650 449 -1915
898 -3360 34 -107 61 -200 61 -206 0 -6 -20 -56 -44 -110 -82 -186 -133 -351
-161 -528 -9 -56 -20 -93 -29 -98 -8 -5 -38 -52 -67 -106 -29 -53 -129 -214
-222 -357 -1127 -1722 -1834 -2927 -2079 -3545 -397 -1003 -414 -1837 -47
-2330 197 -266 487 -432 846 -485 73 -11 161 -16 270 -14 l162 2 50 -99 c98
-196 239 -382 446 -589 371 -372 841 -695 1460 -1007 301 -151 359 -187 478
-298 381 -356 641 -1016 737 -1870 32 -294 41 -471 41 -820 0 -320 -7 -468
-32 -755 -29 -318 20 -587 141 -779 61 -97 185 -208 284 -256 115 -55 183 -71
331 -77 155 -6 268 10 423 62 316 106 627 336 836 620 160 217 250 304 386
374 112 59 189 74 335 68 148 -6 249 -34 420 -116 215 -103 366 -204 821 -547
304 -229 389 -280 559 -330 122 -36 340 -45 466 -20 254 52 442 157 644 360
132 132 193 216 273 376 147 291 190 592 143 1005 -42 371 -51 624 -30 845 11
123 42 293 62 343 l13 31 18 -50 c32 -83 126 -265 183 -354 202 -311 473 -547
755 -659 246 -97 487 -112 740 -46 527 136 1017 641 1418 1460 117 240 174
383 291 735 254 764 578 2028 910 3555 l83 380 57 75 c218 288 359 649 400
1025 22 210 -4 527 -61 729 l-19 68 25 157 c19 116 27 210 31 367 6 241 -4
362 -47 530 -59 234 -140 385 -286 533 l-93 93 15 37 c37 85 46 124 42 176 -6
67 -43 127 -96 154 -20 10 -386 167 -812 347 l-775 328 -85 0 c-73 1 -92 -3
-136 -26 -56 -30 -103 -78 -134 -138 -11 -21 -24 -41 -28 -44 -7 -4 -338 118
-350 129 -2 1 13 40 32 86 45 109 81 232 102 344 20 111 15 338 -10 429 -72
258 -220 452 -493 642 -236 165 -474 254 -680 254 -268 0 -429 -133 -543 -448
-28 -75 -35 -68 -44 43 -16 207 -104 443 -227 612 -66 90 -207 224 -310 293
-176 117 -427 226 -664 285 -319 81 -586 70 -795 -32 -55 -26 -96 -57 -152
-113 -91 -91 -136 -175 -169 -315 -26 -112 -31 -126 -35 -105 -2 8 -33 238
-69 510 -195 1468 -416 3002 -560 3875 -139 848 -229 1259 -288 1324 -33 36
-192 138 -284 182 -113 54 -269 104 -382 123 -111 19 -297 19 -397 1z m403
-159 c113 -24 229 -65 337 -121 95 -47 128 -75 91 -75 -9 0 -47 -12 -83 -27
-225 -89 -374 -267 -423 -508 -26 -125 -22 -292 16 -620 94 -821 395 -2633
716 -4303 12 -62 19 -115 16 -118 -8 -9 -719 319 -725 334 -2 7 2 32 9 55 21
62 17 163 -7 218 -50 109 -84 130 -470 289 l-201 82 -36 302 c-185 1505 -275
2840 -247 3646 6 162 14 320 18 351 11 74 67 173 149 260 135 143 289 217 528
253 54 8 238 -3 312 -18z m-4305 -1601 c3 -3 -7 -19 -22 -35 -34 -36 -63 -97
-87 -181 -27 -97 -24 -414 6 -609 100 -653 420 -1738 856 -2902 26 -70 45
-133 42 -141 -3 -7 -52 -41 -109 -74 -234 -137 -446 -329 -612 -551 l-55 -74
-40 131 c-94 303 -124 400 -205 671 -448 1503 -697 2540 -713 2960 -6 170 5
230 68 351 143 276 448 452 790 458 42 0 78 -1 81 -4z m3518 -3710 c349 -147
1013 -440 1474 -650 l840 -383 -3 -113 c-2 -99 -7 -128 -38 -224 -43 -134 -78
-295 -94 -434 -16 -147 -7 -444 19 -591 69 -384 241 -748 494 -1040 l66 -77
-46 14 c-61 19 -231 22 -302 4 -30 -7 -97 -33 -147 -57 -158 -76 -276 -212
-329 -381 -14 -43 -34 -105 -44 -138 -63 -197 -51 -383 35 -560 73 -149 169
-248 317 -325 209 -109 457 -108 671 1 117 61 246 191 305 309 61 122 77 192
77 335 0 147 -21 222 -101 373 -30 56 -53 102 -50 102 3 0 31 -16 61 -36 83
-53 277 -147 388 -188 204 -76 429 -121 665 -133 l127 -6 200 -85 c240 -101
290 -116 366 -108 100 10 167 42 240 115 74 74 105 139 116 242 l6 59 91 52
c475 267 807 670 989 1200 5 14 18 12 109 -24 88 -33 1457 -607 1466 -614 4
-3 -24 -397 -34 -476 l-6 -47 -43 19 c-79 34 -234 80 -362 107 -121 26 -143
27 -388 27 -245 0 -267 -1 -388 -27 -424 -91 -766 -274 -1058 -566 -63 -64
-152 -166 -197 -227 -54 -73 -111 -135 -166 -182 -142 -121 -288 -309 -387
-496 -70 -133 -97 -204 -178 -462 -85 -270 -130 -387 -145 -380 -292 127 -462
163 -718 153 -160 -5 -256 -23 -404 -72 -186 -62 -361 -163 -516 -298 -118
-102 -262 -294 -330 -436 -20 -43 -47 -81 -78 -108 -64 -57 -130 -148 -241
-333 -129 -215 -204 -289 -292 -290 -26 0 -410 149 -682 265 -396 169 -661
327 -804 480 -81 87 -111 149 -111 232 0 54 5 71 45 145 101 185 144 302 170
468 8 52 24 136 36 185 28 127 36 358 15 490 -27 180 -91 367 -172 510 -202
354 -535 605 -926 700 -231 56 -459 55 -693 -5 -411 -103 -756 -381 -945 -759
-55 -110 -114 -292 -134 -410 -18 -108 -21 -324 -6 -435 l11 -75 -100 -138
c-56 -76 -112 -151 -125 -167 l-23 -30 -78 152 c-130 256 -283 468 -462 644
-48 48 -98 95 -111 105 l-23 18 57 120 c169 359 274 689 321 1005 9 63 17 116
18 118 1 1 52 -18 112 -42 451 -185 950 -201 1415 -45 657 219 1151 749 1329
1423 100 380 86 762 -41 1147 -172 522 -532 940 -1020 1184 -63 31 -117 59
-119 61 -2 2 72 89 165 194 134 153 172 191 188 187 12 -2 307 -125 656 -272z
m3335 -100 c408 -67 825 -284 1009 -524 81 -106 82 -118 5 -45 -165 158 -373
253 -623 284 -378 48 -697 -109 -842 -415 -57 -120 -84 -281 -52 -313 20 -20
38 -15 174 54 89 44 152 69 195 76 63 11 159 4 159 -11 0 -4 -19 -14 -42 -21
-181 -54 -397 -224 -476 -374 -26 -50 -27 -57 -30 -256 -6 -343 28 -727 84
-935 4 -17 2 -16 -16 5 -33 40 -76 128 -114 238 -48 139 -62 164 -89 160 -44
-6 -60 -138 -33 -268 8 -36 13 -66 11 -68 -6 -7 -69 181 -96 288 -66 263 -92
516 -92 885 1 469 57 880 139 1021 59 101 189 188 324 218 87 19 294 19 405 1z
m-5000 -15 c918 -75 1634 -773 1734 -1692 44 -395 -57 -828 -274 -1177 -444
-716 -1326 -1052 -2132 -812 -99 30 -306 113 -330 133 -9 7 -13 40 -13 100 0
336 -103 700 -281 994 -136 226 -383 496 -607 664 l-112 85 6 45 c85 620 424
1126 954 1425 234 132 529 218 820 238 92 7 118 6 235 -3z m7055 -810 c97 -16
212 -56 333 -117 95 -49 123 -73 83 -73 -22 0 -47 -37 -53 -77 -3 -21 4 -90
16 -153 11 -63 23 -155 27 -205 7 -88 8 -90 51 -136 45 -48 53 -69 27 -69 -8
0 -79 21 -157 46 -133 44 -146 46 -221 41 -102 -7 -200 -54 -289 -137 -73 -69
-86 -92 -173 -315 -116 -299 -161 -428 -179 -508 -14 -67 -23 -85 -59 -123
-54 -56 -81 -58 -96 -6 -95 356 2 1009 232 1555 100 236 228 313 458 277z
m-1622 -221 c176 -38 342 -117 387 -185 24 -35 24 -95 0 -299 -43 -377 -98
-688 -160 -902 -40 -138 -49 -148 -166 -187 -170 -56 -383 -56 -577 0 -148 43
-167 55 -186 110 -62 193 -96 499 -96 880 l0 262 43 58 c80 109 261 225 411
264 97 26 222 25 344 -1z m1985 -816 c141 -67 277 -198 277 -267 0 -48 -159
-333 -308 -551 -97 -142 -148 -204 -177 -211 -39 -10 -163 15 -241 47 -75 31
-191 107 -233 152 -21 24 -23 32 -17 84 16 134 79 342 175 572 55 132 57 135
102 159 79 40 136 51 249 49 95 -2 112 -6 173 -34z m-9398 -78 c45 -35 113
-94 152 -131 l72 -69 -279 -445 c-187 -299 -296 -462 -330 -497 -87 -89 -225
-144 -354 -142 -58 0 -182 30 -180 42 1 5 101 169 222 365 237 385 426 706
513 869 l54 102 25 -16 c14 -9 61 -44 105 -78z m369 -356 c14 -17 29 -41 32
-54 8 -33 -13 -405 -31 -557 -40 -322 -118 -668 -220 -973 -149 -446 -333
-806 -629 -1233 -265 -382 -329 -490 -380 -643 -55 -165 -58 -323 -12 -591 52
-299 91 -334 218 -199 55 58 233 288 282 363 15 23 22 26 51 21 23 -4 43 0 59
10 30 20 193 214 314 375 105 138 121 147 242 140 310 -18 544 -511 601 -1268
13 -168 7 -500 -11 -635 -39 -286 -127 -553 -257 -774 -75 -127 -93 -169 -93
-218 0 -59 18 -91 62 -114 147 -75 409 67 577 314 74 109 273 487 321 612 13
33 34 73 47 88 21 26 23 39 23 127 0 122 -17 372 -34 505 -8 55 -12 103 -9
108 6 11 371 9 498 -3 204 -19 611 -91 754 -132 l44 -13 -59 -39 c-180 -120
-254 -280 -214 -470 28 -135 158 -335 321 -492 241 -232 534 -382 1384 -709
293 -113 592 -233 720 -290 791 -349 1247 -714 1494 -1195 162 -316 194 -589
94 -798 -42 -87 -159 -200 -260 -251 -350 -175 -862 -141 -1328 89 -137 67
-223 123 -395 255 -97 75 -227 145 -315 171 -83 24 -202 21 -290 -6 -38 -12
-135 -53 -215 -90 -335 -157 -550 -182 -898 -104 -381 85 -809 277 -1402 629
-214 128 -338 198 -456 261 l-102 54 -67 -9 c-131 -19 -178 -7 -343 82 -81 43
-169 91 -197 105 -69 35 -299 180 -420 265 -550 387 -944 814 -1072 1162 -46
125 -54 177 -63 435 -10 288 -27 487 -71 835 -92 734 -228 1435 -370 1903 -38
124 -42 147 -42 247 0 61 5 137 12 170 68 323 254 722 629 1350 52 88 96 161
98 163 1 2 35 -9 76 -24 66 -25 86 -28 203 -28 116 0 138 3 203 26 195 70 260
136 467 468 87 140 166 264 175 275 9 11 61 91 115 178 53 86 101 157 105 157
5 0 20 -14 34 -31z m8015 -1290 c157 -66 300 -130 317 -141 55 -38 94 -113 94
-182 0 -127 -126 -240 -251 -223 -22 3 -172 61 -332 129 -244 103 -298 129
-329 161 -47 49 -61 93 -56 173 5 84 41 138 117 177 95 48 114 44 440 -94z
m-2006 -47 c181 -90 256 -238 161 -322 -102 -89 -327 -52 -466 78 -112 105
-119 219 -16 271 37 19 56 22 139 19 90 -3 103 -6 182 -46z m4562 -152 c355
-34 704 -169 980 -379 100 -76 273 -250 351 -353 430 -571 508 -1310 205
-1953 -151 -319 -416 -614 -716 -795 -727 -439 -1632 -350 -2260 224 -426 388
-657 1000 -594 1574 71 657 469 1220 1061 1501 313 149 648 211 973 181z
m-7755 -239 c123 -28 201 -56 320 -117 363 -185 615 -529 686 -937 24 -137 15
-387 -19 -522 -124 -490 -506 -855 -1007 -962 -120 -25 -391 -25 -510 1 -245
53 -457 165 -631 333 -199 192 -323 416 -380 685 -30 144 -31 362 0 505 115
549 548 955 1103 1033 98 14 340 3 438 -19z m4639 -1967 c469 -83 862 -428
1004 -880 82 -259 80 -556 -3 -804 -110 -328 -361 -611 -673 -759 -295 -140
-636 -163 -951 -64 -247 77 -489 249 -644 458 -110 149 -205 369 -237 549 -19
113 -20 337 0 449 80 461 402 839 850 1000 198 70 436 89 654 51z m2063 -1503
c234 -113 487 -181 753 -201 129 -10 174 -9 336 6 l57 5 -34 -160 c-243 -1154
-583 -2228 -898 -2836 -139 -270 -267 -455 -431 -623 -119 -124 -214 -197
-338 -263 -138 -72 -245 -100 -402 -106 -199 -8 -363 30 -566 133 -102 51
-303 184 -374 247 l-50 44 -3 233 c-3 186 1 277 18 444 20 189 21 225 10 346
-6 74 -12 241 -12 370 -2 255 8 330 58 437 36 75 84 119 250 228 318 208 504
370 656 572 106 141 173 253 287 480 117 234 208 375 321 495 68 74 221 208
236 208 2 0 59 -27 126 -59z m-5205 -4368 c16 -24 19 -62 23 -318 5 -271 7
-293 27 -337 49 -107 115 -53 344 287 99 147 184 245 212 245 28 0 47 -44 57
-130 10 -90 25 -121 71 -149 76 -46 178 -37 544 49 324 76 439 94 600 94 212
-1 344 -46 467 -163 198 -186 277 -520 249 -1051 -28 -534 -117 -920 -306
-1327 l-48 -102 -76 -18 c-112 -26 -291 -23 -401 5 -150 40 -262 104 -515 298
-592 453 -860 611 -1163 686 -125 31 -325 31 -435 0 -147 -42 -277 -121 -399
-243 -43 -43 -78 -74 -78 -69 0 11 67 257 141 515 216 754 410 1325 540 1591
44 91 98 164 120 164 5 0 17 -12 26 -27z"/>
<path d="M13762 18134 c-101 -27 -169 -74 -225 -156 -117 -173 -73 -410 96
-527 48 -33 590 -264 661 -282 150 -37 346 53 417 193 34 66 52 155 44 217
-13 100 -42 160 -114 231 l-66 65 -305 128 c-374 155 -397 161 -508 131z m433
-268 c154 -65 295 -129 313 -143 112 -84 121 -246 18 -341 -100 -92 -146 -86
-486 57 -319 135 -336 144 -375 199 -28 40 -30 50 -30 127 0 76 2 87 30 126
19 27 51 54 85 72 89 47 118 40 445 -97z"/>
<path d="M10936 19309 c-515 -51 -939 -434 -1048 -944 -25 -119 -27 -336 -4
-458 95 -501 495 -887 996 -963 539 -81 1072 221 1280 726 111 269 117 596 16
863 -194 515 -698 830 -1240 776z m234 -483 c154 -28 292 -105 395 -219 68
-76 140 -216 160 -312 24 -117 20 -129 -21 -56 -129 226 -392 368 -646 347
-282 -23 -519 -215 -603 -486 -10 -30 -20 -98 -24 -150 l-7 -95 -17 38 c-56
123 -62 328 -13 472 82 241 282 414 531 460 92 17 153 17 245 1z"/>
<path d="M20271 15954 c-315 -85 -503 -417 -415 -734 30 -105 124 -258 211
-342 324 -314 876 -151 979 288 21 91 15 236 -15 321 -82 241 -251 414 -456
468 -74 19 -231 19 -304 -1z m115 -229 c46 -19 60 -55 68 -180 4 -54 9 -101
12 -105 3 -3 41 32 85 78 65 67 85 82 110 82 37 0 85 -24 99 -49 28 -54 4 -87
-155 -203 l-120 -89 -41 -92 c-45 -102 -50 -105 -126 -66 -66 34 -67 48 -7
195 10 26 9 49 -5 135 -10 57 -20 147 -23 200 -5 89 -4 97 13 102 35 9 54 7
90 -8z"/>
<path d="M18827 15365 c-351 -89 -546 -467 -411 -799 35 -87 146 -248 207
-299 187 -159 433 -191 654 -85 49 23 91 55 148 113 90 90 134 165 161 281 21
89 14 235 -15 317 -29 84 -99 210 -151 275 -57 71 -179 155 -267 183 -88 28
-245 35 -326 14z m133 -253 c22 -23 30 -44 40 -104 7 -42 16 -81 20 -89 6 -9
28 0 87 39 44 29 88 52 100 52 11 0 35 -10 54 -23 28 -19 35 -30 37 -63 4 -50
-4 -57 -128 -125 -52 -28 -96 -52 -97 -53 -2 -2 10 -63 27 -137 l30 -134 -27
-24 c-22 -19 -34 -22 -66 -18 -65 9 -85 38 -104 150 l-16 97 -26 -17 c-14 -9
-56 -36 -93 -61 -73 -48 -87 -49 -138 -5 -23 19 -30 33 -30 59 0 46 23 68 132
127 48 26 90 52 93 56 3 5 -8 66 -24 135 l-28 127 25 19 c38 30 97 27 132 -8z"/>
<path d="M20869 14496 c-211 -59 -370 -221 -425 -436 -24 -96 -16 -252 20
-345 36 -93 143 -252 213 -314 63 -56 170 -112 253 -132 77 -19 222 -16 295 5
181 53 330 189 394 361 40 107 44 277 10 385 -20 62 -96 203 -140 263 -73 98
-197 180 -322 213 -64 17 -236 17 -298 0z m249 -276 c142 -55 212 -124 212
-209 0 -76 -56 -141 -121 -141 l-22 0 21 -22 c48 -53 51 -122 7 -189 -59 -91
-195 -92 -368 -1 -79 41 -127 84 -127 115 0 18 160 410 192 471 9 16 18 18 67
13 31 -2 93 -19 139 -37z"/>
<path d="M21020 14068 c-26 -57 -25 -67 8 -79 68 -27 81 -28 107 -7 14 10 25
27 25 37 0 23 -36 56 -83 76 l-38 16 -19 -43z"/>
<path d="M20924 13843 c-11 -27 -20 -51 -22 -55 -6 -12 76 -48 111 -48 58 0
88 58 50 93 -14 12 -106 57 -117 57 -2 0 -12 -21 -22 -47z"/>
<path d="M19445 13910 c-225 -48 -405 -221 -461 -443 -22 -85 -15 -250 15
-332 59 -164 206 -342 339 -409 185 -93 397 -86 578 19 110 64 218 208 258
344 20 68 21 236 2 308 -32 119 -126 281 -208 359 -109 103 -231 154 -383 160
-55 2 -118 -1 -140 -6z m240 -304 c28 -13 61 -35 74 -49 22 -25 23 -31 17
-109 -15 -167 -57 -483 -66 -492 -14 -14 -100 11 -129 37 -21 20 -23 28 -18
80 l5 59 -62 28 c-102 46 -97 46 -139 -10 -33 -44 -41 -49 -65 -44 -75 18
-119 63 -103 106 11 30 91 128 238 291 112 124 115 127 156 127 23 0 65 -11
92 -24z"/>
<path d="M19554 13395 c-33 -37 -60 -70 -62 -74 -2 -7 15 -16 94 -48 11 -4 40
174 31 184 -3 2 -31 -26 -63 -62z"/>
<path d="M12275 15829 c-58 -14 -109 -53 -137 -107 -14 -26 -53 -113 -87 -193
-63 -150 -85 -181 -151 -215 -68 -35 -126 -25 -315 55 -128 55 -181 72 -217
73 -121 0 -168 -47 -257 -257 -100 -236 -104 -254 -79 -337 22 -74 67 -107
253 -183 192 -79 244 -118 265 -197 18 -66 8 -110 -65 -283 -83 -195 -90 -239
-51 -320 15 -30 40 -64 56 -75 38 -27 366 -165 413 -174 24 -5 57 -2 90 8 84
24 115 65 195 255 77 181 103 221 165 252 73 38 121 31 300 -44 86 -37 176
-71 198 -77 60 -17 127 2 182 51 39 34 53 60 126 232 83 199 90 229 70 302
-21 74 -75 113 -265 194 -177 74 -213 99 -248 168 -32 64 -22 120 54 301 81
192 89 229 66 300 -27 79 -67 108 -272 194 -194 82 -228 91 -289 77z"/>
<path d="M16646 13635 c-289 -60 -517 -234 -641 -488 -71 -146 -89 -226 -89
-397 0 -173 19 -254 89 -397 113 -230 307 -392 562 -470 79 -24 103 -27 243
-27 140 0 164 3 243 27 314 96 527 309 623 623 25 81 28 104 28 244 0 140 -3
164 -27 243 -96 311 -318 532 -624 623 -111 32 -300 41 -407 19z m287 -410
c32 -8 81 -27 109 -41 66 -34 168 -135 201 -200 31 -62 59 -157 55 -186 -3
-20 -7 -16 -31 25 -87 147 -242 237 -411 237 -132 0 -234 -40 -331 -131 -94
-88 -155 -221 -155 -338 0 -58 -14 -44 -34 34 -31 116 -15 253 42 359 35 65
133 164 198 198 105 56 243 73 357 43z"/>
</g>
</svg>
