<?xml version="1.0" standalone="no"?>
<!DOCTYPE svg PUBLIC "-//W3C//DTD SVG 20010904//EN"
 "http://www.w3.org/TR/2001/REC-SVG-20010904/DTD/svg10.dtd">
<svg version="1.0" xmlns="http://www.w3.org/2000/svg"
 width="1058.000000pt" height="1280.000000pt" viewBox="0 0 1058.000000 1280.000000"
 preserveAspectRatio="xMidYMid meet">

<g transform="translate(0.000000,1280.000000) scale(0.100000,-0.100000)"
fill="#000000" stroke="none">
<path d="M3848 12755 c-23 -25 -47 -45 -54 -45 -6 0 -26 -16 -43 -35 -17 -19
-38 -35 -47 -35 -9 0 -31 -9 -48 -19 -17 -11 -50 -25 -74 -32 -26 -8 -51 -24
-63 -41 -14 -20 -29 -28 -50 -28 -35 0 -112 -73 -105 -99 11 -35 8 -88 -7
-122 -15 -34 -39 -145 -39 -179 0 -8 0 -31 1 -50 0 -19 0 -44 0 -55 1 -11 3
-37 7 -57 4 -23 2 -38 -4 -38 -23 0 -49 -136 -27 -142 6 -2 17 12 25 29 18 38
30 42 30 10 0 -23 -32 -74 -70 -109 -11 -10 -20 -27 -20 -38 0 -10 -15 -39
-34 -63 -56 -74 -69 -105 -63 -156 3 -28 -1 -63 -10 -90 -17 -51 -10 -143 13
-161 10 -9 12 -24 8 -50 -4 -23 -2 -40 5 -44 6 -4 11 -16 11 -26 0 -13 5 -17
15 -14 27 11 16 -15 -16 -38 -43 -31 -53 -62 -34 -99 12 -21 14 -43 9 -81 -6
-40 -4 -54 8 -62 11 -8 19 -44 26 -121 12 -122 8 -135 -62 -189 -36 -27 -136
-146 -174 -206 -18 -29 -22 -31 -22 -14 0 12 8 32 18 45 24 31 34 69 18 69
-13 0 -106 -106 -107 -124 -3 -40 -38 -118 -57 -124 -9 -3 -11 4 -6 25 9 40
-11 18 -25 -29 -7 -20 -28 -56 -46 -80 -19 -24 -35 -51 -35 -62 0 -19 -39
-100 -79 -166 -11 -19 -29 -53 -40 -76 -34 -73 -293 -315 -268 -250 5 11 1 16
-13 16 -10 0 -22 -4 -25 -10 -20 -32 -93 26 -114 91 -7 20 -9 69 -7 115 3 43
8 133 11 199 3 66 11 150 16 187 10 64 13 69 71 122 33 31 66 56 73 56 7 0 40
31 73 69 49 57 64 84 82 143 12 40 23 79 26 86 3 9 14 11 39 6 38 -7 42 -1 23
41 -8 18 -9 29 -1 33 5 4 9 29 9 56 l-1 49 50 17 c38 13 52 23 61 47 8 17 25
35 42 42 68 28 121 165 89 228 -26 49 -92 102 -137 109 -22 4 -40 10 -40 14 0
12 -122 -19 -158 -41 -18 -10 -49 -19 -67 -19 -24 0 -39 -6 -47 -20 -16 -25
-74 -27 -115 -3 -36 20 -83 11 -83 -16 0 -12 -14 -24 -43 -35 -23 -9 -48 -16
-55 -16 -6 0 -23 -18 -37 -40 -25 -40 -87 -80 -123 -80 -11 0 -26 -7 -33 -17
-8 -9 -34 -28 -58 -43 -26 -16 -39 -30 -32 -34 19 -12 12 -23 -21 -37 -18 -7
-44 -22 -58 -33 -14 -12 -43 -30 -63 -41 -43 -23 -45 -27 -15 -40 36 -17 32
-33 -11 -45 -33 -9 -45 -19 -61 -50 -11 -21 -24 -41 -29 -44 -16 -10 -24 -66
-11 -81 6 -8 9 -23 5 -34 -4 -13 -1 -20 11 -23 20 -4 -50 -76 -155 -161 -36
-29 -81 -68 -100 -88 -20 -19 -49 -41 -64 -49 -42 -21 -144 -121 -153 -150 -4
-14 -27 -49 -52 -78 -39 -45 -45 -60 -49 -106 -2 -39 1 -57 12 -66 8 -7 15
-21 15 -31 0 -26 44 -35 73 -16 47 31 88 80 85 101 -3 18 1 21 32 18 25 -2 63
10 132 43 63 29 111 45 136 45 29 0 51 9 86 36 55 42 79 40 70 -6 -4 -19 -1
-38 10 -55 32 -49 3 -380 -34 -380 -18 0 -35 -98 -44 -265 -5 -88 -3 -135 9
-200 9 -47 23 -116 30 -155 26 -138 58 -261 80 -307 12 -25 25 -58 29 -73 10
-38 52 -102 78 -119 15 -9 54 -15 108 -16 109 -3 93 -4 249 16 95 12 141 15
160 7 16 -6 35 -6 47 -1 12 6 30 5 46 -1 24 -9 27 -16 30 -73 3 -35 10 -90 17
-123 16 -74 9 -226 -12 -275 -11 -25 -17 -85 -21 -199 -4 -140 -3 -166 10
-176 13 -9 11 -16 -15 -49 -17 -21 -33 -55 -36 -75 -3 -20 -10 -54 -16 -76 -6
-22 -16 -67 -24 -100 -12 -53 -22 -95 -57 -237 -5 -21 -14 -38 -19 -38 -6 0
-9 -7 -5 -15 8 -21 -9 -59 -45 -105 -27 -33 -31 -47 -31 -97 0 -32 3 -75 7
-95 6 -30 4 -38 -7 -38 -8 0 -23 -18 -33 -39 -13 -31 -34 -50 -91 -85 -41 -25
-78 -46 -83 -46 -4 0 -27 -14 -49 -30 -23 -17 -45 -30 -49 -30 -3 0 -27 -13
-52 -28 -159 -99 -187 -112 -234 -112 -51 0 -70 -18 -47 -45 16 -20 6 -45 -19
-45 -11 0 -23 -5 -27 -12 -5 -8 -2 -9 9 -5 31 12 18 -12 -20 -38 -21 -14 -52
-25 -70 -25 -38 0 -122 -26 -143 -45 -8 -7 -40 -26 -70 -41 -30 -15 -68 -38
-84 -51 -16 -13 -50 -35 -77 -48 -26 -14 -52 -31 -56 -38 -4 -7 -38 -36 -74
-64 -124 -98 -171 -162 -232 -313 -37 -92 -44 -122 -58 -244 -21 -187 -61
-448 -74 -484 -11 -29 -48 -266 -60 -386 -15 -142 -16 -144 -92 -185 -30 -16
-49 -34 -51 -46 -3 -20 -144 -125 -166 -125 -5 0 -40 -14 -78 -32 l-68 -32 0
-352 0 -352 30 -12 c16 -7 48 -10 70 -8 23 2 40 -1 40 -7 0 -5 5 -3 10 5 7 11
10 11 10 2 0 -7 5 -10 10 -7 6 4 16 2 23 -3 7 -6 32 -16 57 -23 66 -19 73 -26
65 -74 -4 -22 -10 -146 -14 -275 -5 -151 -12 -243 -20 -257 -6 -13 -16 -48
-22 -78 -5 -30 -21 -74 -34 -97 -25 -44 -25 -88 1 -118 28 -33 26 -64 -6 -93
-16 -16 -30 -36 -30 -44 0 -9 -11 -31 -25 -49 -14 -18 -25 -36 -25 -41 0 -8
-22 -32 -97 -105 l-43 -42 0 -463 c0 -255 2 -463 5 -463 3 0 33 13 68 30 91
44 187 108 244 165 56 55 101 94 130 111 10 6 28 29 41 52 17 31 38 48 84 71
69 35 102 38 155 16 52 -22 72 -42 99 -100 30 -63 32 -157 5 -270 -10 -44 -26
-118 -35 -165 -44 -213 -61 -270 -108 -347 -21 -35 -38 -66 -38 -71 0 -23
-130 -122 -160 -122 -12 0 -133 -70 -145 -84 -23 -27 -83 -64 -130 -82 -27
-10 -56 -24 -63 -30 -17 -18 -117 -45 -136 -38 -13 5 -16 -2 -16 -40 l0 -46
1047 2 1046 3 26 75 c14 42 36 92 48 110 11 19 40 80 63 135 23 55 55 129 71
164 16 35 29 68 29 75 0 6 18 46 39 88 21 42 42 94 45 115 8 45 113 266 162
340 38 57 101 188 159 328 21 50 57 131 80 180 24 50 46 101 50 115 4 14 13
39 19 55 7 17 23 64 36 105 13 41 31 93 40 115 10 22 27 72 40 110 12 39 33
91 45 117 13 26 28 72 34 103 17 91 74 190 168 292 67 73 93 95 126 105 23 6
53 20 66 30 13 10 42 23 65 29 22 6 48 16 56 22 32 25 62 38 108 47 27 5 79
27 118 49 38 22 81 43 96 46 14 4 34 14 45 24 20 19 114 61 136 61 8 0 22 9
32 20 10 11 24 20 32 20 7 0 13 4 13 8 0 12 83 52 107 52 11 0 26 7 33 15 12
14 56 29 110 38 50 8 120 40 161 74 31 27 131 66 254 100 72 20 103 23 155 18
36 -3 72 -6 80 -6 28 -2 107 -27 148 -48 23 -12 46 -21 52 -21 5 0 56 -23 113
-50 71 -35 126 -54 182 -64 45 -8 108 -24 140 -36 76 -28 111 -38 155 -45 19
-3 96 -21 170 -40 74 -18 164 -39 200 -45 36 -6 88 -15 115 -20 216 -40 416
-58 830 -75 88 -3 186 -11 218 -16 45 -8 71 -7 118 5 41 11 105 16 202 15 79
0 155 4 169 10 14 5 68 15 119 21 52 6 132 17 179 25 47 7 153 23 235 35 83
11 168 25 190 31 22 5 90 21 150 35 155 35 230 63 275 101 22 19 61 39 94 47
31 8 61 18 66 21 13 8 50 80 50 97 0 29 86 187 108 197 12 6 32 27 43 46 12
19 25 35 30 35 5 0 9 4 9 10 0 5 21 29 46 52 76 70 122 196 159 443 10 61 26
130 37 154 10 24 22 73 25 110 3 36 16 93 28 126 13 33 39 107 59 165 20 58
52 146 71 195 19 50 41 117 49 150 7 33 23 95 35 139 12 43 22 95 23 115 0 20
12 56 25 79 44 78 83 160 83 177 0 10 -7 33 -17 52 l-16 35 34 26 c65 51 75
66 93 147 10 44 27 104 37 133 10 29 21 78 23 110 4 53 26 134 47 174 12 23
72 224 147 493 34 121 76 272 94 335 27 99 33 135 36 255 3 134 5 141 29 164
24 23 25 25 22 175 -2 102 -7 160 -16 178 -12 24 -11 37 4 93 17 63 17 66 -5
142 -42 143 -52 214 -52 353 0 114 -4 148 -24 220 -14 47 -28 98 -31 114 -3
15 -17 38 -32 50 -54 45 -63 57 -63 84 0 36 -39 100 -50 83 -10 -17 -20 0 -18
30 2 34 -20 107 -35 116 -7 4 -39 44 -72 88 -62 83 -176 194 -286 278 -56 43
-283 156 -345 172 -32 8 -67 23 -78 34 -12 10 -47 34 -78 54 -31 20 -64 50
-73 67 -8 16 -20 30 -24 30 -19 0 -69 51 -75 76 -4 14 -20 44 -36 66 -17 23
-30 46 -30 53 0 6 -11 21 -24 34 -30 28 -43 72 -60 206 -16 128 -7 454 18 640
9 61 15 131 16 157 0 37 6 54 29 80 36 41 45 95 20 109 -24 13 -24 101 0 144
9 17 18 55 20 85 1 30 5 59 8 64 3 4 7 44 8 88 2 68 0 81 -16 91 -11 7 -19 22
-19 35 0 13 -7 36 -15 52 -9 17 -13 30 -11 30 5 0 -23 47 -59 98 -9 12 -26 22
-38 22 -80 0 -152 53 -141 103 7 33 -17 64 -76 99 -19 12 -50 37 -68 55 -35
35 -62 40 -122 23 -22 -6 -38 -6 -44 0 -16 16 -74 11 -117 -10 -39 -21 -113
-29 -242 -29 -38 0 -68 -6 -84 -16 -19 -13 -37 -15 -72 -10 -60 8 -117 -13
-131 -50 -8 -22 -28 -30 -61 -27 -3 1 -39 2 -80 3 -66 2 -81 -1 -137 -29 -34
-18 -77 -32 -95 -32 -39 0 -77 -24 -77 -49 0 -21 -97 -128 -132 -145 -11 -6
-22 -20 -24 -31 -12 -110 -12 -143 2 -169 18 -36 11 -59 -21 -74 -22 -10 -42
-61 -33 -87 1 -6 -3 -35 -9 -65 -6 -30 -17 -86 -24 -124 -6 -37 -18 -80 -25
-95 -7 -15 -15 -42 -16 -60 -2 -25 -13 -42 -41 -66 -37 -32 -39 -37 -41 -97
-1 -35 -5 -69 -10 -76 -4 -7 -1 -18 7 -26 8 -9 16 -47 20 -96 l7 -82 -31 -26
c-29 -24 -31 -29 -27 -81 3 -31 1 -72 -3 -91 -4 -19 -10 -57 -14 -83 -4 -32
-12 -50 -23 -54 -9 -4 -30 -17 -45 -30 -16 -13 -38 -23 -50 -23 -47 0 -172
-32 -180 -46 -6 -10 -18 -13 -41 -9 -35 7 -110 -24 -119 -49 -4 -9 -15 -12
-32 -9 -15 3 -33 -1 -43 -10 -9 -8 -33 -17 -52 -19 -19 -2 -36 -9 -36 -15 -1
-7 -2 -17 -3 -22 0 -5 -9 -12 -19 -15 -10 -4 -25 -21 -34 -39 -12 -25 -37 -44
-109 -82 -52 -27 -119 -59 -149 -71 -74 -27 -93 -38 -208 -116 -54 -36 -118
-72 -143 -78 -24 -7 -73 -25 -109 -42 -128 -57 -170 -55 -170 11 0 45 -13 86
-51 165 -18 37 -27 67 -23 81 4 18 0 26 -22 37 -17 8 -44 43 -73 94 -25 44
-58 96 -72 115 -15 19 -46 72 -69 119 -23 47 -48 92 -54 100 -7 8 -18 34 -25
57 -10 37 -19 46 -59 65 -45 22 -47 25 -57 85 -12 67 -64 149 -133 210 l-37
32 26 53 c28 56 39 85 60 158 7 25 21 61 31 80 9 19 33 78 53 130 19 52 48
120 64 150 15 30 39 82 51 115 13 33 32 71 42 84 10 13 18 31 18 41 0 9 7 37
16 63 13 40 14 61 4 154 -6 59 -13 155 -16 213 -3 78 -10 115 -24 143 -11 21
-20 48 -20 60 0 33 -11 44 -145 143 -116 86 -180 124 -210 124 -8 0 -29 13
-47 29 -18 15 -51 34 -73 42 -22 8 -58 26 -80 40 -48 31 -122 42 -305 44 -95
1 -142 6 -195 22 -76 23 -159 43 -176 43 -5 0 -29 -20 -51 -45z m-585 -2132
c7 -6 -21 -32 -35 -33 -5 0 -8 9 -8 20 0 19 28 28 43 13z m3864 -725 c-3 -8
-6 -5 -6 6 -1 11 2 17 5 13 3 -3 4 -12 1 -19z m-1047 -648 c0 -5 12 -10 28
-10 36 0 54 -13 46 -33 -5 -13 -1 -15 20 -11 14 2 26 1 27 -3 6 -70 14 -311
13 -383 -2 -76 -7 -108 -27 -160 -14 -36 -36 -114 -48 -175 -11 -60 -32 -139
-45 -174 -13 -35 -24 -73 -24 -85 -1 -53 -54 -156 -81 -156 -5 0 -16 26 -25
58 -9 31 -27 83 -40 114 -19 46 -24 76 -25 150 -1 182 -29 336 -105 575 l-46
143 57 52 c72 66 91 77 135 78 19 0 46 7 60 15 29 17 80 20 80 5z"/>
<path d="M220 4070 c-13 -8 -12 -10 3 -10 9 0 17 5 17 10 0 12 -1 12 -20 0z"/>
</g>
</svg>
